# xmcd CD database file
#
# Track frame offsets:
#	183
#	13728
#	27308
#	37833
#	51033
#	65080
#	79965
#	95145
#	108705
#	122503
#	135593
#	149643
#	167063
#	187498
#	206455
#	220803
#	233140
#	247608
#	261185
#	272930
#	286193
#	298310
#
# Disc length: 4391 seconds
#
# Revision: 5
# Processed by: cddbd v1.5.2PL0 Copyright (c) Steve Scherf et al.
# Submitted via: CDex 1.51
#
DISCID=59112516
DTITLE=Charlie Parker  - Vol. 069 - Bird-Inspired by the Motion Picture
DYEAR=1988
DGENRE=Jazz
TTITLE0=Now's the Time - Parker
TTITLE1=Parker's Mood - Parker
TTITLE2=Cool Blues - Parker
TTITLE3=Laura - Mercer, Raskin
TTITLE4=Night in Tunisia - Gillepsie, Paparelli
TTITLE5=Lover Man (1946) - Ramirez, Davis
TTITLE6=Lover Man (1951) - Ramirez, Davis
TTITLE7=Ornithology - Benny, Harris
TTITLE8=Moose the Mooche - Parker
TTITLE9=Ko Ko - Parker
TTITLE10=April in Paris - Harburg, Duke
TTITLE11=Relaxin' with Lee - Parker
TTITLE12=Overtime - P. Rugolo
TTITLE13=Victory Ball - L. Tristano, B. Bauer, C. Parker
TTITLE14=Bird of Paradise - Parker
TTITLE15=Chasin' the Bird - Parker
TTITLE16=Sepian Bounce - Hall, Mc Shann
TTITLE17=Relaxin' at Camarillo - Parker
TTITLE18=Back Home Blues - Parker
TTITLE19=Blue Bird - Parker
TTITLE20=Yardbird Suite - Parker
TTITLE21=Lester Leaps in - L. Young
EXTD=YEAR: 1988
EXTT0=
EXTT1=
EXTT2=
EXTT3=
EXTT4=
EXTT5=
EXTT6=
EXTT7=
EXTT8=
EXTT9=
EXTT10=
EXTT11=
EXTT12=
EXTT13=
EXTT14=
EXTT15=
EXTT16=
EXTT17=
EXTT18=
EXTT19=
EXTT20=
EXTT21=
PLAYORDER=
